<svg version="1.1" id="Layer_1" xmlns="http://www.w3.org/2000/svg" xmlns:xlink="http://www.w3.org/1999/xlink" x="0px" y="0px"
	 width="100%" viewBox="0 0 768 1024" enable-background="new 0 0 768 1024" xml:space="preserve">
<path fill="#FFFFFF" opacity="1.000000" stroke="none" 
	d="
M468.000000,1025.000000 
	C312.000000,1025.000000 156.500000,1025.000000 1.000000,1025.000000 
	C1.000000,683.666687 1.000000,342.333344 1.000000,1.000000 
	C257.000000,1.000000 513.000000,1.000000 769.000000,1.000000 
	C769.000000,342.333344 769.000000,683.666687 769.000000,1025.000000 
	C668.833313,1025.000000 568.666687,1025.000000 468.000000,1025.000000 
M426.606720,683.250427 
	C426.606720,683.250427 426.617645,683.333252 426.706848,683.909729 
	C427.096039,684.318237 427.485229,684.726685 427.899475,684.994934 
	C427.899475,684.994934 427.837433,685.123169 427.920074,685.824097 
	C444.294067,713.478577 460.662689,741.136230 477.077759,768.766296 
	C477.430847,769.360596 478.317047,769.638245 478.991394,770.802795 
	C483.880005,778.621033 488.768616,786.439209 493.527191,794.892334 
	C497.524872,801.171692 501.183563,807.700745 505.587799,813.680664 
	C516.154358,828.027649 530.301392,836.323486 548.354187,836.764893 
	C570.265320,837.300598 589.858398,823.657471 598.819275,801.630249 
	C607.458313,780.393982 609.487854,757.789124 611.938477,734.329651 
	C612.571228,722.477722 613.203979,710.625854 613.888794,697.866638 
	C613.942749,694.211487 614.049011,690.556213 614.042236,686.901184 
	C613.992615,660.318726 613.920288,633.736206 613.951782,606.197571 
	C613.951843,596.781250 613.951965,587.364929 613.997009,577.018677 
	C614.000427,556.619446 614.037292,536.220215 613.992249,515.821106 
	C613.971741,506.544373 613.789246,497.268036 613.863647,487.065887 
	C613.898804,458.755920 613.933960,430.445953 614.005676,401.178253 
	C614.000305,389.073120 614.037354,376.967712 613.946106,364.863220 
	C613.931580,362.933624 613.341431,361.008392 613.230225,358.266144 
	C613.420959,356.312836 613.881165,354.342712 613.760803,352.408783 
	C612.475037,331.753021 611.097473,311.102936 609.668335,289.626404 
	C607.615417,278.600830 604.144043,268.227112 595.714294,259.401550 
	C589.904846,255.378830 584.558655,250.286407 578.199768,247.532532 
	C558.563660,239.028610 530.564880,244.141663 515.462036,271.509064 
	C515.160767,272.931763 515.055298,274.432190 514.526672,275.764709 
	C510.739319,285.311584 510.199677,295.110687 512.080017,305.958954 
	C512.700806,310.914124 513.798279,315.862701 513.866821,320.825500 
	C514.400269,359.471466 514.735718,398.120148 515.006775,437.734406 
	C515.010010,447.116089 514.963745,456.498291 515.061462,465.878998 
	C515.079224,467.587250 515.684448,469.289368 515.772888,471.710846 
	C515.788330,472.454376 515.803772,473.197937 515.419128,474.660309 
	C515.372498,478.483765 515.290466,482.307129 515.284729,486.130646 
	C515.236206,518.401489 515.201660,550.672363 515.071594,583.471558 
	C515.098633,583.648193 515.125732,583.824829 515.263184,584.768738 
	C515.243835,585.800415 515.224487,586.832031 515.111633,588.521179 
	C515.144592,588.739990 515.177551,588.958862 515.321594,589.720581 
	C515.278931,590.085266 515.236267,590.450012 515.044434,591.769714 
	C515.040283,598.071350 514.909302,604.376465 515.079468,610.673401 
	C515.182373,614.480835 515.752502,618.275635 515.849487,622.797241 
	C515.644775,623.266357 515.440063,623.735474 515.111694,624.494080 
	C515.050537,624.709045 515.073669,624.914551 515.303101,625.967712 
	C515.250183,629.647461 515.197266,633.327271 514.759094,637.002441 
	C514.500549,637.021484 514.247375,637.069031 513.445801,636.737366 
	C510.646759,632.783569 507.847717,628.829712 505.006927,624.157166 
	C501.836304,619.048035 498.822968,613.831665 495.438080,608.868591 
	C493.293823,605.724609 490.596039,602.958130 488.338776,599.257751 
	C487.413147,597.346008 486.690338,595.300415 485.530151,593.543518 
	C475.259888,577.991516 464.966339,562.454163 454.568787,546.987061 
	C447.154755,535.958130 439.570007,525.043884 431.760315,513.436340 
	C426.440033,505.586761 421.119751,497.737183 415.711060,489.222717 
	C410.487427,481.473938 405.263794,473.725159 399.799591,465.322937 
	C399.217743,464.331238 398.676666,463.312836 398.048096,462.351715 
	C380.829712,436.025116 363.607605,409.700958 346.355377,383.396515 
	C345.742004,382.461273 344.816010,381.731018 343.947632,380.205658 
	C338.659821,371.810303 333.372009,363.414917 327.634918,354.502136 
	C326.705353,353.122986 325.753906,351.758026 324.849457,350.362579 
	C303.385345,317.245544 281.689209,284.291809 256.435211,253.865326 
	C255.257767,252.446701 253.548065,251.469864 252.014389,249.545502 
	C247.254547,244.103943 242.564148,238.599197 237.698807,233.253662 
	C235.893799,231.270523 233.678467,229.660828 231.441711,227.182144 
	C213.963791,208.238525 181.113846,203.525574 158.395432,223.426727 
	C144.923767,235.227753 139.225479,250.984909 137.214111,267.955139 
	C134.729568,288.917572 133.554077,310.035217 131.331863,331.641357 
	C131.405014,334.053711 131.478165,336.466064 131.657028,339.672760 
	C131.583435,340.198792 131.509842,340.724792 131.076447,341.927521 
	C131.062241,356.283264 131.048050,370.639008 130.917358,385.836700 
	C130.653046,405.485870 130.388733,425.135010 130.022888,445.746979 
	C130.070816,455.599518 130.118744,465.452057 130.123428,476.202454 
	C130.770142,529.069336 131.416855,581.936157 132.012482,635.760681 
	C132.675369,647.166809 133.338257,658.572876 133.882812,670.913513 
	C133.885071,673.071106 133.838837,675.229980 133.896973,677.386108 
	C134.585785,702.932739 135.290192,728.478882 135.974945,754.958130 
	C136.294418,764.936829 136.613876,774.915527 136.473389,785.367371 
	C136.892761,786.968384 137.300629,788.572449 137.733231,790.169861 
	C144.444565,814.953125 165.085098,829.783875 190.094742,827.796448 
	C213.074020,825.970398 231.751450,807.297485 233.950394,782.697021 
	C235.117462,769.640564 234.577103,756.431519 234.926056,742.315063 
	C234.557922,731.468811 234.189804,720.622559 233.813171,708.911682 
	C232.537811,676.643555 231.262451,644.375366 230.002289,611.150940 
	C229.638992,600.402771 229.275696,589.654541 228.999786,577.984436 
	C228.959290,532.453308 228.918793,486.922211 228.936142,440.392792 
	C228.936081,429.901459 228.936005,419.410156 228.999451,408.031097 
	C228.960739,405.367126 228.922028,402.703186 229.071030,399.123108 
	C229.071030,395.031219 229.071030,390.939362 229.071030,386.847473 
	C229.497604,386.848419 229.924194,386.849365 230.350769,386.850342 
	C234.197830,392.093353 238.044907,397.336395 242.076248,403.211914 
	C243.415497,405.676636 244.625305,408.222992 246.119171,410.590149 
	C249.997284,416.735229 254.000336,422.801514 258.427490,429.403015 
	C280.169250,462.493500 301.901764,495.590088 323.688904,528.650696 
	C324.502472,529.885254 325.847595,530.769409 326.981628,532.586914 
	C332.241791,540.381897 337.501953,548.176880 342.802368,556.707214 
	C350.628448,568.620605 358.374725,580.587402 366.301575,592.433350 
	C375.421936,606.062927 384.701935,619.585693 394.050934,633.833740 
	C397.083008,638.640625 399.968567,643.548828 403.198029,648.219238 
	C405.398560,651.401550 408.080109,654.251221 410.431244,657.904297 
	C415.500397,666.003296 420.569550,674.102356 425.842529,682.694336 
	C426.118958,682.897156 426.395386,683.099976 426.606720,683.250427 
z"/>
<path fill="#2A698C" opacity="1.000000" stroke="none" 
	d="
M241.891968,402.579407 
	C238.044907,397.336395 234.197830,392.093353 230.350769,386.850342 
	C229.924194,386.849365 229.497604,386.848419 229.071030,386.847473 
	C229.071030,390.939362 229.071030,395.031219 228.628204,399.517212 
	C221.764969,397.222900 215.454971,394.219269 208.897583,391.921783 
	C199.665619,388.687195 190.969437,390.416199 183.181046,396.261780 
	C170.764206,405.581238 161.963821,418.042419 153.635864,430.858307 
	C151.791306,433.696869 150.533768,436.916931 148.698792,440.171204 
	C142.302582,441.848755 136.213501,443.316467 130.124435,444.784180 
	C130.388733,425.135010 130.653046,405.485870 131.266495,385.259949 
	C140.524445,375.261505 149.359650,365.768890 158.356476,356.432007 
	C181.308319,332.612640 204.789703,309.281372 227.112503,284.888458 
	C236.650894,274.465546 243.833282,261.886566 252.086227,250.287277 
	C253.548065,251.469864 255.257767,252.446701 256.435211,253.865326 
	C281.689209,284.291809 303.385345,317.245544 324.849457,350.362579 
	C325.753906,351.758026 326.705353,353.122986 327.830688,355.121216 
	C322.846161,358.865875 317.790253,362.223541 312.464172,365.076935 
	C288.982635,377.657135 265.423187,390.091949 241.891968,402.579407 
z"/>
<path fill="#3993C7" opacity="1.000000" stroke="none" 
	d="
M132.063568,634.803040 
	C131.416855,581.936157 130.770142,529.069336 130.538818,475.687256 
	C142.986420,471.916534 155.286026,469.411530 166.992004,465.240570 
	C187.810318,457.822693 208.269119,449.395874 228.878296,441.391113 
	C228.918793,486.922211 228.959290,532.453308 228.641785,578.586365 
	C227.298004,579.798340 226.331650,580.442688 225.323624,581.013367 
	C200.857742,594.864014 176.356384,608.652405 151.938019,622.586304 
	C145.187546,626.438354 138.681656,630.718994 132.063568,634.803040 
z"/>
<path fill="#3892C6" opacity="1.000000" stroke="none" 
	d="
M515.144287,637.007019 
	C515.197266,633.327271 515.250183,629.647461 515.380737,625.408813 
	C515.598145,624.560974 515.523804,624.345825 515.235352,624.204590 
	C515.440063,623.735474 515.644775,623.266357 516.384155,622.432251 
	C547.950378,615.105896 579.205017,609.612732 611.213257,608.120483 
	C611.942017,610.112671 612.926514,611.755615 612.933899,613.402954 
	C613.036316,636.207703 613.011536,659.012939 612.987061,681.818115 
	C612.985718,683.082214 612.715759,684.346130 612.502563,686.205750 
	C610.192871,685.621948 608.296631,685.241943 606.465088,684.658752 
	C602.839355,683.504333 599.329590,681.843018 595.629639,681.091736 
	C584.696655,678.871643 573.728271,678.765930 562.545410,679.794678 
	C549.008179,681.040161 536.165283,684.632874 523.943665,689.961121 
	C512.929260,694.763062 502.709686,701.363098 492.010712,706.922180 
	C484.583984,710.781128 476.708282,714.673157 468.352173,710.458679 
	C460.869812,706.684875 453.940979,701.802246 446.821899,697.322937 
	C440.455475,693.317139 434.162689,689.194336 427.837433,685.123169 
	C427.837433,685.123169 427.899475,684.994934 427.915405,684.733398 
	C427.493439,684.092285 427.055542,683.712769 426.617645,683.333252 
	C426.617645,683.333252 426.606720,683.250427 426.622620,682.978882 
	C426.305237,682.538696 425.971954,682.369995 425.638702,682.201355 
	C420.569550,674.102356 415.500397,666.003296 410.840515,657.557495 
	C425.385986,651.802795 439.384186,645.991943 453.694092,641.091309 
	C470.672119,635.276917 487.918518,630.246216 505.048645,624.875916 
	C507.847717,628.829712 510.646759,632.783569 513.740601,637.211548 
	C514.358948,637.938538 514.682495,638.191284 515.006042,638.444092 
	C515.052124,637.965088 515.098206,637.486023 515.144287,637.007019 
z"/>
<path fill="#2A698C" opacity="1.000000" stroke="none" 
	d="
M609.744995,290.451324 
	C611.097473,311.102936 612.475037,331.753021 613.760803,352.408783 
	C613.881165,354.342712 613.420959,356.312836 612.842773,358.842102 
	C586.675903,391.637726 553.942139,415.371948 518.766174,436.106537 
	C517.770752,436.693268 516.353027,436.563599 515.132263,436.768005 
	C514.735718,398.120148 514.400269,359.471466 513.866821,320.825500 
	C513.798279,315.862701 512.700806,310.914124 512.396729,305.383057 
	C535.580750,297.159180 559.033936,292.138184 583.043579,290.175873 
	C591.877502,289.453888 600.840759,290.313263 609.744995,290.451324 
z"/>
<path fill="#3993C6" opacity="1.000000" stroke="none" 
	d="
M393.912598,633.154907 
	C384.701935,619.585693 375.421936,606.062927 366.301575,592.433350 
	C358.374725,580.587402 350.628448,568.620605 343.141510,556.242554 
	C373.007599,541.878113 402.534546,527.978333 432.061462,514.078491 
	C439.570007,525.043884 447.154755,535.958130 454.568787,546.987061 
	C464.966339,562.454163 475.259888,577.991516 485.530151,593.543518 
	C486.690338,595.300415 487.413147,597.346008 487.833405,599.614624 
	C455.305878,608.544983 424.387238,620.224976 393.912598,633.154907 
z"/>
<path fill="#29698C" opacity="1.000000" stroke="none" 
	d="
M344.035706,380.905212 
	C344.816010,381.731018 345.742004,382.461273 346.355377,383.396515 
	C363.607605,409.700958 380.829712,436.025116 398.048096,462.351715 
	C398.676666,463.312836 399.217743,464.331238 399.644440,465.841797 
	C391.962524,475.113342 384.832764,484.251556 376.805328,492.518066 
	C367.430054,502.172577 355.652863,504.074158 344.121307,497.341766 
	C336.203217,492.718994 328.856995,486.781158 322.161133,480.469940 
	C308.019318,467.140472 294.527985,453.123230 280.651947,439.508209 
	C275.227570,434.185852 269.486633,429.186096 264.171265,423.819824 
	C267.541382,421.966461 270.639221,420.349670 273.717316,418.696106 
	C297.158936,406.103180 320.596710,393.503082 344.035706,380.905212 
z"/>
<path fill="#3993C7" opacity="1.000000" stroke="none" 
	d="
M613.680176,487.991516 
	C613.789246,497.268036 613.971741,506.544373 613.992249,515.821106 
	C614.037292,536.220215 614.000427,556.619446 613.551331,577.537659 
	C581.688477,580.686279 550.480347,584.738953 519.670654,591.589966 
	C518.303406,591.894043 516.691528,591.098206 515.193604,590.814697 
	C515.236267,590.450012 515.278931,590.085266 515.405701,589.309814 
	C515.523254,588.771851 515.616760,588.621216 515.578064,588.522095 
	C515.487305,588.289490 515.333374,588.081604 515.205078,587.863708 
	C515.224487,586.832031 515.243835,585.800415 515.343628,584.288696 
	C515.451294,583.699707 515.530396,583.568787 515.495483,583.486084 
	C515.413696,583.292786 515.277222,583.122742 515.162903,582.943237 
	C515.201660,550.672363 515.236206,518.401489 515.284729,486.130646 
	C515.290466,482.307129 515.372498,478.483765 515.935669,474.440155 
	C525.750061,482.762238 534.760803,491.647888 544.436829,499.737793 
	C552.136230,506.175079 561.358398,509.959656 571.652283,508.782562 
	C583.631897,507.412689 594.275208,502.528351 603.702881,494.938324 
	C606.851929,492.403137 610.344666,490.294922 613.680176,487.991516 
z"/>
<path fill="#6C99B3" opacity="1.000000" stroke="none" 
	d="
M427.878754,685.473633 
	C434.162689,689.194336 440.455475,693.317139 446.821899,697.322937 
	C453.940979,701.802246 460.869812,706.684875 468.352173,710.458679 
	C476.708282,714.673157 484.583984,710.781128 492.010712,706.922180 
	C502.709686,701.363098 512.929260,694.763062 523.943665,689.961121 
	C536.165283,684.632874 549.008179,681.040161 562.545410,679.794678 
	C573.728271,678.765930 584.696655,678.871643 595.629639,681.091736 
	C599.329590,681.843018 602.839355,683.504333 606.465088,684.658752 
	C608.296631,685.241943 610.192871,685.621948 612.502563,686.205750 
	C612.715759,684.346130 612.985718,683.082214 612.987061,681.818115 
	C613.011536,659.012939 613.036316,636.207703 612.933899,613.402954 
	C612.926514,611.755615 611.942017,610.112671 611.441101,607.926025 
	C612.265259,607.307495 613.060181,607.230652 613.855103,607.153748 
	C613.920288,633.736206 613.992615,660.318726 614.042236,686.901184 
	C614.049011,690.556213 613.942749,694.211487 613.560425,698.478760 
	C583.669678,719.112000 551.656982,734.613953 519.568970,749.995056 
	C505.952820,756.521790 492.488098,763.364502 478.954559,770.063599 
	C478.317047,769.638245 477.430847,769.360596 477.077759,768.766296 
	C460.662689,741.136230 444.294067,713.478577 427.878754,685.473633 
z"/>
<path fill="#2B698C" opacity="1.000000" stroke="none" 
	d="
M131.436249,341.250824 
	C131.509842,340.724792 131.583435,340.198792 131.738480,338.864014 
	C131.817612,335.732117 131.815277,333.408936 131.812958,331.085785 
	C133.554077,310.035217 134.729568,288.917572 137.214111,267.955139 
	C139.225479,250.984909 144.923767,235.227753 158.395432,223.426727 
	C181.113846,203.525574 213.963791,208.238525 231.290100,227.820648 
	C224.334656,242.311981 215.622482,254.969757 205.083664,266.111603 
	C181.638336,290.898376 157.694077,315.213379 133.924347,339.692688 
	C133.262283,340.374512 132.272964,340.738586 131.436249,341.250824 
z"/>
<path fill="#6D9AB3" opacity="1.000000" stroke="none" 
	d="
M611.838684,735.280640 
	C609.487854,757.789124 607.458313,780.393982 598.819275,801.630249 
	C589.858398,823.657471 570.265320,837.300598 548.354187,836.764893 
	C530.301392,836.323486 516.154358,828.027649 505.587799,813.680664 
	C501.183563,807.700745 497.524872,801.171692 493.915039,794.557251 
	C526.059509,778.588623 557.842896,763.009338 589.553040,747.282104 
	C597.107422,743.535400 604.416687,739.294312 611.838684,735.280640 
z"/>
<path fill="#2A698C" opacity="1.000000" stroke="none" 
	d="
M613.771973,487.528717 
	C610.344666,490.294922 606.851929,492.403137 603.702881,494.938324 
	C594.275208,502.528351 583.631897,507.412689 571.652283,508.782562 
	C561.358398,509.959656 552.136230,506.175079 544.436829,499.737793 
	C534.760803,491.647888 525.750061,482.762238 516.135742,474.080750 
	C515.803772,473.197937 515.788330,472.454376 516.241699,471.300964 
	C543.350464,456.174316 569.096741,440.106537 592.497192,420.522858 
	C599.722961,414.475677 606.815491,408.269409 613.969055,402.135986 
	C613.933960,430.445953 613.898804,458.755920 613.771973,487.528717 
z"/>
<path fill="#3993C6" opacity="1.000000" stroke="none" 
	d="
M229.987091,612.107239 
	C231.262451,644.375366 232.537811,676.643555 233.519257,709.519043 
	C227.932343,712.878845 222.639343,715.631287 216.974518,718.258484 
	C209.656647,713.166748 202.482956,708.486389 195.810440,703.176270 
	C180.442947,690.946228 165.797836,677.749695 147.763046,669.282654 
	C145.532639,668.235474 143.753387,666.227356 141.966766,664.398193 
	C162.609940,651.372559 182.935303,638.421387 203.548828,625.946350 
	C212.042526,620.806091 221.155685,616.689453 229.987091,612.107239 
z"/>
<path fill="#6E9AB3" opacity="1.000000" stroke="none" 
	d="
M234.807526,743.291321 
	C234.577103,756.431519 235.117462,769.640564 233.950394,782.697021 
	C231.751450,807.297485 213.074020,825.970398 190.094742,827.796448 
	C165.085098,829.783875 144.444565,814.953125 137.733231,790.169861 
	C137.300629,788.572449 136.892761,786.968384 137.086823,785.156372 
	C163.253204,776.928894 187.377014,765.525085 211.430252,753.935852 
	C219.141983,750.220215 227.010651,746.830261 234.807526,743.291321 
z"/>
<path fill="#ECEAD0" opacity="1.000000" stroke="none" 
	d="
M131.256348,341.589172 
	C132.272964,340.738586 133.262283,340.374512 133.924347,339.692688 
	C157.694077,315.213379 181.638336,290.898376 205.083664,266.111603 
	C215.622482,254.969757 224.334656,242.311981 231.394363,228.169998 
	C233.678467,229.660828 235.893799,231.270523 237.698807,233.253662 
	C242.564148,238.599197 247.254547,244.103943 252.050308,249.916382 
	C243.833282,261.886566 236.650894,274.465546 227.112503,284.888458 
	C204.789703,309.281372 181.308319,332.612640 158.356476,356.432007 
	C149.359650,365.768890 140.524445,375.261505 131.324738,384.838989 
	C131.048050,370.639008 131.062241,356.283264 131.256348,341.589172 
z"/>
<path fill="#EDEBCF" opacity="1.000000" stroke="none" 
	d="
M611.888550,734.805176 
	C604.416687,739.294312 597.107422,743.535400 589.553040,747.282104 
	C557.842896,763.009338 526.059509,778.588623 493.980042,794.239746 
	C488.768616,786.439209 483.880005,778.621033 478.972961,770.433228 
	C492.488098,763.364502 505.952820,756.521790 519.568970,749.995056 
	C551.656982,734.613953 583.669678,719.112000 613.534424,698.932434 
	C613.203979,710.625854 612.571228,722.477722 611.888550,734.805176 
z"/>
<path fill="#6C99B3" opacity="1.000000" stroke="none" 
	d="
M141.765060,664.664551 
	C143.753387,666.227356 145.532639,668.235474 147.763046,669.282654 
	C165.797836,677.749695 180.442947,690.946228 195.810440,703.176270 
	C202.482956,708.486389 209.656647,713.166748 216.704407,718.478516 
	C197.932159,727.713440 179.158279,736.825500 160.135681,745.384827 
	C152.364655,748.881348 144.055069,751.181030 135.990479,754.025208 
	C135.290192,728.478882 134.585785,702.932739 133.896973,677.386108 
	C133.838837,675.229980 133.885071,673.071106 134.246750,670.310730 
	C136.995483,668.026794 139.380280,666.345703 141.765060,664.664551 
z"/>
<path fill="#3A92C5" opacity="1.000000" stroke="none" 
	d="
M263.889893,424.039368 
	C269.486633,429.186096 275.227570,434.185852 280.651947,439.508209 
	C294.527985,453.123230 308.019318,467.140472 322.161133,480.469940 
	C328.856995,486.781158 336.203217,492.718994 344.121307,497.341766 
	C355.652863,504.074158 367.430054,502.172577 376.805328,492.518066 
	C384.832764,484.251556 391.962524,475.113342 399.764709,466.168518 
	C405.263794,473.725159 410.487427,481.473938 415.411438,489.625610 
	C405.791931,494.399323 396.454590,498.733459 387.155701,503.148499 
	C367.075012,512.682617 347.014038,522.258240 326.945007,531.816895 
	C325.847595,530.769409 324.502472,529.885254 323.688904,528.650696 
	C301.901764,495.590088 280.169250,462.493500 258.211304,428.803589 
	C259.960022,426.815918 261.924957,425.427643 263.889893,424.039368 
z"/>
<path fill="#ECEAD0" opacity="1.000000" stroke="none" 
	d="
M613.987366,401.657104 
	C606.815491,408.269409 599.722961,414.475677 592.497192,420.522858 
	C569.096741,440.106537 543.350464,456.174316 516.364502,470.942688 
	C515.684448,469.289368 515.079224,467.587250 515.061462,465.878998 
	C514.963745,456.498291 515.010010,447.116089 515.069519,437.251221 
	C516.353027,436.563599 517.770752,436.693268 518.766174,436.106537 
	C553.942139,415.371948 586.675903,391.637726 612.736328,359.249573 
	C613.341431,361.008392 613.931580,362.933624 613.946106,364.863220 
	C614.037354,376.967712 614.000305,389.073120 613.987366,401.657104 
z"/>
<path fill="#ECEBD1" opacity="1.000000" stroke="none" 
	d="
M141.966766,664.398193 
	C139.380280,666.345703 136.995483,668.026794 134.305908,669.843506 
	C133.338257,658.572876 132.675369,647.166809 132.038025,635.281860 
	C138.681656,630.718994 145.187546,626.438354 151.938019,622.586304 
	C176.356384,608.652405 200.857742,594.864014 225.323624,581.013367 
	C226.331650,580.442688 227.298004,579.798340 228.598083,579.047363 
	C229.275696,589.654541 229.638992,600.402771 229.994690,611.629089 
	C221.155685,616.689453 212.042526,620.806091 203.548828,625.946350 
	C182.935303,638.421387 162.609940,651.372559 141.966766,664.398193 
z"/>
<path fill="#EDEBCF" opacity="1.000000" stroke="none" 
	d="
M135.982712,754.491699 
	C144.055069,751.181030 152.364655,748.881348 160.135681,745.384827 
	C179.158279,736.825500 197.932159,727.713440 217.076233,718.603760 
	C222.639343,715.631287 227.932343,712.878845 233.523499,709.951294 
	C234.189804,720.622559 234.557922,731.468811 234.866791,742.803223 
	C227.010651,746.830261 219.141983,750.220215 211.430252,753.935852 
	C187.377014,765.525085 163.253204,776.928894 137.316803,784.919800 
	C136.613876,774.915527 136.294418,764.936829 135.982712,754.491699 
z"/>
<path fill="#ECEBD1" opacity="1.000000" stroke="none" 
	d="
M228.907211,440.891937 
	C208.269119,449.395874 187.810318,457.822693 166.992004,465.240570 
	C155.286026,469.411530 142.986420,471.916534 130.560455,475.238312 
	C130.118744,465.452057 130.070816,455.599518 130.073669,445.265564 
	C136.213501,443.316467 142.302582,441.848755 149.089661,440.206818 
	C152.972504,439.111847 156.266327,438.461304 159.324799,437.227386 
	C182.554428,427.855438 205.738007,418.369324 228.935944,408.918823 
	C228.936005,419.410156 228.936081,429.901459 228.907211,440.891937 
z"/>
<path fill="#ECEBD1" opacity="1.000000" stroke="none" 
	d="
M393.981750,633.494324 
	C424.387238,620.224976 455.305878,608.544983 487.737274,599.996948 
	C490.596039,602.958130 493.293823,605.724609 495.438080,608.868591 
	C498.822968,613.831665 501.836304,619.048035 505.027771,624.516541 
	C487.918518,630.246216 470.672119,635.276917 453.694092,641.091309 
	C439.384186,645.991943 425.385986,651.802795 410.898193,657.230225 
	C408.080109,654.251221 405.398560,651.401550 403.198029,648.219238 
	C399.968567,643.548828 397.083008,638.640625 393.981750,633.494324 
z"/>
<path fill="#ECEBD1" opacity="1.000000" stroke="none" 
	d="
M613.903442,606.675659 
	C613.060181,607.230652 612.265259,607.307495 611.242493,607.578857 
	C579.205017,609.612732 547.950378,615.105896 516.515747,622.071716 
	C515.752502,618.275635 515.182373,614.480835 515.079468,610.673401 
	C514.909302,604.376465 515.040283,598.071350 515.119019,591.292236 
	C516.691528,591.098206 518.303406,591.894043 519.670654,591.589966 
	C550.480347,584.738953 581.688477,580.686279 613.528870,578.002625 
	C613.951965,587.364929 613.951843,596.781250 613.903442,606.675659 
z"/>
<path fill="#ECEBD1" opacity="1.000000" stroke="none" 
	d="
M326.963318,532.201904 
	C347.014038,522.258240 367.075012,512.682617 387.155701,503.148499 
	C396.454590,498.733459 405.791931,494.399323 415.455658,489.958038 
	C421.119751,497.737183 426.440033,505.586761 431.910889,513.757446 
	C402.534546,527.978333 373.007599,541.878113 343.121399,555.874878 
	C337.501953,548.176880 332.241791,540.381897 326.963318,532.201904 
z"/>
<path fill="#ECEAD0" opacity="1.000000" stroke="none" 
	d="
M264.171265,423.819824 
	C261.924957,425.427643 259.960022,426.815918 257.974304,428.551697 
	C254.000336,422.801514 249.997284,416.735229 246.119171,410.590149 
	C244.625305,408.222992 243.415497,405.676636 241.984100,402.895660 
	C265.423187,390.091949 288.982635,377.657135 312.464172,365.076935 
	C317.790253,362.223541 322.846161,358.865875 328.055359,355.379913 
	C333.372009,363.414917 338.659821,371.810303 343.991669,380.555420 
	C320.596710,393.503082 297.158936,406.103180 273.717316,418.696106 
	C270.639221,420.349670 267.541382,421.966461 264.171265,423.819824 
z"/>
<path fill="#ECEAD0" opacity="1.000000" stroke="none" 
	d="
M609.706665,290.038879 
	C600.840759,290.313263 591.877502,289.453888 583.043579,290.175873 
	C559.033936,292.138184 535.580750,297.159180 512.375366,304.964844 
	C510.199677,295.110687 510.739319,285.311584 514.526672,275.764709 
	C515.055298,274.432190 515.160767,272.931763 515.803345,271.655182 
	C517.873230,271.832031 519.661926,272.170288 521.320923,271.845490 
	C536.479004,268.877838 551.554016,265.434784 566.778625,262.876221 
	C576.423828,261.255280 586.281982,260.901978 596.044678,259.980164 
	C604.144043,268.227112 607.615417,278.600830 609.706665,290.038879 
z"/>
<path fill="#3A92C5" opacity="1.000000" stroke="none" 
	d="
M228.967697,408.474976 
	C205.738007,418.369324 182.554428,427.855438 159.324799,437.227386 
	C156.266327,438.461304 152.972504,439.111847 149.396820,439.996948 
	C150.533768,436.916931 151.791306,433.696869 153.635864,430.858307 
	C161.963821,418.042419 170.764206,405.581238 183.181046,396.261780 
	C190.969437,390.416199 199.665619,388.687195 208.897583,391.921783 
	C215.454971,394.219269 221.764969,397.222900 228.534348,399.975281 
	C228.922028,402.703186 228.960739,405.367126 228.967697,408.474976 
z"/>
<path fill="#346D8C" opacity="1.000000" stroke="none" 
	d="
M595.879517,259.690857 
	C586.281982,260.901978 576.423828,261.255280 566.778625,262.876221 
	C551.554016,265.434784 536.479004,268.877838 521.320923,271.845490 
	C519.661926,272.170288 517.873230,271.832031 516.106018,271.433899 
	C530.564880,244.141663 558.563660,239.028610 578.199768,247.532532 
	C584.558655,250.286407 589.904846,255.378830 595.879517,259.690857 
z"/>
<path fill="#ECEAD0" opacity="1.000000" stroke="none" 
	d="
M131.572418,331.363586 
	C131.815277,333.408936 131.817612,335.732117 131.685608,338.466858 
	C131.478165,336.466064 131.405014,334.053711 131.572418,331.363586 
z"/>
<path fill="#ECEBD1" opacity="1.000000" stroke="none" 
	d="
M514.951660,637.004761 
	C515.098206,637.486023 515.052124,637.965088 515.006042,638.444092 
	C514.682495,638.191284 514.358948,637.938538 514.017456,637.415405 
	C514.247375,637.069031 514.500549,637.021484 514.951660,637.004761 
z"/>
<path fill="#6C99B3" opacity="1.000000" stroke="none" 
	d="
M426.662231,683.621460 
	C427.055542,683.712769 427.493439,684.092285 427.902832,684.803467 
	C427.485229,684.726685 427.096039,684.318237 426.662231,683.621460 
z"/>
<path fill="#ECEBD1" opacity="1.000000" stroke="none" 
	d="
M515.173523,624.349365 
	C515.523804,624.345825 515.598145,624.560974 515.319702,624.980286 
	C515.073669,624.914551 515.050537,624.709045 515.173523,624.349365 
z"/>
<path fill="#6C99B3" opacity="1.000000" stroke="none" 
	d="
M425.740601,682.447876 
	C425.971954,682.369995 426.305237,682.538696 426.655151,683.005066 
	C426.395386,683.099976 426.118958,682.897156 425.740601,682.447876 
z"/>
<path fill="#ECEBD1" opacity="1.000000" stroke="none" 
	d="
M515.158325,588.192444 
	C515.333374,588.081604 515.487305,588.289490 515.578064,588.522095 
	C515.616760,588.621216 515.523254,588.771851 515.350159,589.038452 
	C515.177551,588.958862 515.144592,588.739990 515.158325,588.192444 
z"/>
<path fill="#ECEBD1" opacity="1.000000" stroke="none" 
	d="
M515.117249,583.207397 
	C515.277222,583.122742 515.413696,583.292786 515.495483,583.486084 
	C515.530396,583.568787 515.451294,583.699707 515.288391,583.905151 
	C515.125732,583.824829 515.098633,583.648193 515.117249,583.207397 
z"/>
</svg>